<svg width="18" height="14" viewBox="0 0 18 14" fill="none" xmlns="http://www.w3.org/2000/svg">
<path d="M11.121 4.54744C10.9748 4.40375 10.737 4.40375 10.5908 4.54744C10.4445 4.69113 10.4445 4.92545 10.5908 5.06842C11.0153 5.4855 11.25 6.04036 11.25 6.63132C11.25 7.85009 10.2405 8.84193 9.00003 8.84193C8.39854 8.84193 7.83379 8.61203 7.40928 8.19422C7.26303 8.05053 7.02527 8.05053 6.87902 8.19422C6.73277 8.33719 6.73277 8.57151 6.87902 8.7152C7.44451 9.27228 8.19825 9.57883 9.00003 9.57883C10.6545 9.57883 12 8.25688 12 6.63135C12 5.84358 11.688 5.10303 11.121 4.54744Z" fill="black"/>
<path d="M9.52276 3.73466C9.3525 3.70519 9.17851 3.68381 9.00003 3.68381C7.34554 3.68381 6.00005 5.00576 6.00005 6.63129C6.00005 6.80665 6.02181 6.97763 6.05253 7.14487C6.08477 7.32321 6.24304 7.44921 6.42079 7.44921C6.44256 7.44921 6.46428 7.44773 6.48678 7.44331C6.69002 7.40794 6.82653 7.21634 6.79053 7.01666C6.76729 6.89138 6.75003 6.76392 6.75003 6.63129C6.75003 5.41251 7.75954 4.42067 9.00003 4.42067C9.13503 4.42067 9.26479 4.43763 9.39226 4.45974C9.59177 4.49953 9.79051 4.36099 9.82651 4.16131C9.86251 3.96163 9.72604 3.77003 9.52276 3.73466Z" fill="black"/>
<path d="M17.9107 6.3933C17.826 6.29455 15.7973 3.96826 12.999 2.5439C12.8175 2.45033 12.5888 2.52107 12.4935 2.70234C12.3983 2.88288 12.4703 3.10539 12.6548 3.199C14.8102 4.29546 16.5322 6.00648 17.121 6.63135C16.227 7.58264 12.7088 11.0526 9.00003 11.0526C7.74154 11.0526 6.47328 10.7541 5.22904 10.1646C5.04454 10.0755 4.8188 10.1529 4.7288 10.3363C4.63806 10.5191 4.71681 10.7394 4.90356 10.8278C6.2498 11.4667 7.6283 11.7894 9.00006 11.7894C13.6208 11.7894 17.7383 7.07051 17.9115 6.86934C18.03 6.73225 18.0292 6.53108 17.9107 6.3933Z" fill="black"/>
<path d="M11.4608 1.89764C10.6073 1.61541 9.7793 1.4732 9.00003 1.4732C4.37928 1.4732 0.261789 6.19213 0.088539 6.3933C-0.0209724 6.52003 -0.0299724 6.70427 0.0675508 6.84205C0.119301 6.915 1.35905 8.64443 3.50779 10.0467C3.57153 10.0887 3.64279 10.1086 3.71479 10.1086C3.83555 10.1086 3.9548 10.0511 4.0268 9.94282C4.14155 9.77409 4.0943 9.54491 3.92179 9.43289C2.34381 8.40202 1.26381 7.15745 0.859549 6.65122C1.72281 5.73011 5.2643 2.21009 9.00003 2.21009C9.69826 2.21009 10.446 2.3398 11.2215 2.59547C11.418 2.66472 11.631 2.55789 11.6963 2.36408C11.7623 2.17103 11.6573 1.96251 11.4608 1.89764Z" fill="black"/>
<path d="M15.6398 0.107767C15.4935 -0.0359225 15.2557 -0.0359225 15.1095 0.107767L2.35956 12.6346C2.21331 12.7783 2.21331 13.0119 2.35956 13.1556C2.43307 13.227 2.52904 13.2632 2.62506 13.2632C2.72107 13.2632 2.81704 13.2271 2.88982 13.1556L15.6398 0.628747C15.786 0.485057 15.786 0.251457 15.6398 0.107767Z" fill="black"/>
</svg>
