<svg width="18" height="11" viewBox="0 0 18 11" fill="none" xmlns="http://www.w3.org/2000/svg">
<path d="M17.9334 5.27686C17.7916 5.06078 14.385 0 8.99997 0C4.37913 0 0.261558 5.03172 0.0883052 5.24622C-0.0294351 5.39236 -0.0294351 5.60686 0.0883052 5.75378C0.261558 5.96828 4.37913 11 8.99997 11C13.6208 11 17.7383 5.96828 17.9116 5.75378C18.0204 5.61865 18.0301 5.42301 17.9334 5.27686ZM8.99997 10.2143C5.29567 10.2143 1.77358 6.51359 0.878842 5.50002C1.77211 4.48567 5.29043 0.785738 8.99997 0.785738C13.3343 0.785738 16.3936 4.48096 17.1406 5.4788C16.2781 6.46015 12.7358 10.2143 8.99997 10.2143Z" fill="#B4B6BB"/>
<path d="M8.99997 2.35714C7.34545 2.35714 5.99993 3.76671 5.99993 5.49998C5.99993 7.23325 7.34545 8.64282 8.99997 8.64282C10.6545 8.64282 12 7.23325 12 5.49998C12 3.76671 10.6545 2.35714 8.99997 2.35714ZM8.99997 7.85716C7.75946 7.85716 6.74993 6.79958 6.74993 5.50002C6.74993 4.20046 7.75946 3.14288 8.99997 3.14288C10.2405 3.14288 11.25 4.20046 11.25 5.50002C11.25 6.79958 10.2405 7.85716 8.99997 7.85716Z" fill="#B4B6BB"/>
</svg>
